<?xml version="1.0" encoding="UTF-8"?>
<svg id="Layer_2" data-name="Layer 2" xmlns="http://www.w3.org/2000/svg" width="716.43006" height="441.585702" viewBox="0 0 716.43006 441.585702">
  <defs>
    <style>
      .cls-1 {
        fill: #fc9;
      }

      .cls-1, .cls-2, .cls-3 {
        stroke: #000;
        stroke-miterlimit: 10;
        stroke-width: 15px;
      }

      .cls-2 {
        fill: #9cc;
      }
    </style>
  </defs>
  <g id="Layer_1-2" data-name="Layer 1">
    <path class="cls-2" d="m197.446963,261.889281c-.104018-.297447-15.041654-42.902152-28.770217-79.119242-.540125-1.424893-12.383135-32.955895-40.314531-50.057887-2.859095-1.750671-29.876777-17.840023-63.542539-12.008386-12.773388,2.212627-22.46113,6.788168-26.498878,8.869858-12.595668,6.493642-21.141322,14.597555-26.170002,20.155318,26.83145,13.596514,56.937174,31.265277,88.184524,54.254151,20.169865,14.83905,37.943062,29.781643,53.470263,44.102932-6.999839-5.671178-29.946772-22.775952-60.461231-20.714586-15.239405,1.029477-27.041317,6.479561-31.520968,8.596088-15.940832,7.531542-26.235056,17.893173-31.76437,24.377965,16.761137,1.932976,39.174748,5.792175,64.669167,14.028184,34.931026,11.284448,59.395796,25.535906,73.447081,33.830533,19.985744,11.797877,34.622709,23.056134,63.080878,45.091055,24.827793,19.223949,76.719269,53.797078,61.756989,42.242864-20.167542-15.573822-36.474197-28.038483-49.702835-48.560226-22.548172-34.979248-41.354732-72.200927-45.86333-85.088622Z"/>
    <ellipse class="cls-2" cx="415.488256" cy="220.792851" rx="213.53864" ry="213.292851"/>
    <path class="cls-2" d="m613.087836,159.962414c0,45.298651-36.7218,82.020452-82.020463,82.020452s-82.02044-36.7218-82.02044-82.020452c0-25.105881,12.212267-43.794007,16.944324-49.931325,1.375252-1.78364,26.092989-32.795397,65.076117-32.089121,39.51598.715929,82.020463,33.811458,82.020463,82.020446Z"/>
    <path class="cls-1" d="m708.93006,220.792845c0,27.178542-76.736203,40.997866-79.903205,38.469581-4.132109-3.440787-12.420109-11.330419-16.306691-23.836093-2.060878-6.631209-2.212317-12.398339-2.212317-14.633488,0-15.833859,7.478017-29.921123,19.094971-38.922757,8.323356-6.449523,79.327243,11.744215,79.327243,38.922757Z"/>
    <circle class="cls-3" cx="530.258427" cy="205.566656" r="32.18437"/>
    <path class="cls-2" d="m447.527591,149.476817c-57.719813.016486-115.439612.032971-173.159412.049457-2.816059.078975-18.201432.741502-29.493391,11.426648-8.640323,8.176003-9.835286,17.812127-9.999984,19.669599-.232257,2.619349-.754487,12.743102,7.52344,22.033735,11.421162,12.818397,29.870654,13.137587,32.0825,13.144583"/>
    <path class="cls-2" d="m382.008915,148.522872c-30.377351,51.472344-47.805924,111.479231-47.805924,175.552896,0,31.755647,4.280579,72.512627,12.296815,101.726762"/>
  </g>
</svg>